<svg xmlns="http://www.w3.org/2000/svg" viewBox="-6 -16 82 86">
  <!-- Layer 1: Upper-right blue database cylinder (behind) -->
  <g transform="translate(24, 2)">
    <path d="M0 8v24c0 0 0 6 14 6s14-6 14-6V8" fill="#c0d8f0" stroke="#6090b0" stroke-width="2"/>
    <ellipse cx="14" cy="8" rx="14" ry="6" fill="#d4e6f6" stroke="#6090b0" stroke-width="2"/>
  </g>

  <!-- Layer 2: Lower-left lavender database cylinder (in front) -->
  <g transform="translate(2, 22)">
    <path d="M0 8v24c0 0 0 6 14 6s14-6 14-6V8" fill="#dccef0" stroke="#8870a8" stroke-width="2"/>
    <ellipse cx="14" cy="8" rx="14" ry="6" fill="#e8daf6" stroke="#8870a8" stroke-width="2"/>
  </g>

  <!-- Layer 3: Lavender arrow down-left -->
  <polygon points="-2,18 12,15 9,12 20.5,0.5 15.5,-4.5 4,7 1,4" fill="#c6b3e0" stroke="#8870a8" stroke-width="1.8"/>

  <!-- Layer 4: Blue arrow up-right -->
  <polygon points="54,48 49.5,61.7 46.7,58 34,68 30,62.5 42.5,52.5 39.5,49" fill="#a8cce4" stroke="#6090b0" stroke-width="1.8"/>
</svg>
