<svg xmlns="http://www.w3.org/2000/svg" viewBox="0 0 1200 630">
  <rect width="1200" height="630" fill="#ede8e1"/>

  <!-- Full icon with cylinders + arrows -->
  <g transform="translate(375, 60) scale(4)">
    <g transform="translate(24, 2)">
      <path d="M0 8v24c0 0 0 6 14 6s14-6 14-6V8" fill="#c0d8f0" stroke="#6090b0" stroke-width="2"/>
      <ellipse cx="14" cy="8" rx="14" ry="6" fill="#d4e6f6" stroke="#6090b0" stroke-width="2"/>
    </g>
    <g transform="translate(2, 22)">
      <path d="M0 8v24c0 0 0 6 14 6s14-6 14-6V8" fill="#dccef0" stroke="#8870a8" stroke-width="2"/>
      <ellipse cx="14" cy="8" rx="14" ry="6" fill="#e8daf6" stroke="#8870a8" stroke-width="2"/>
    </g>
    <polygon points="-2,18 12,15 9,12 20.5,0.5 15.5,-4.5 4,7 1,4" fill="#c6b3e0" stroke="#8870a8" stroke-width="1.8"/>
    <polygon points="54,48 49.5,61.7 46.7,58 34,68 30,62.5 42.5,52.5 39.5,49" fill="#a8cce4" stroke="#6090b0" stroke-width="1.8"/>
  </g>

  <text x="600" y="470" text-anchor="middle" font-family="Inter, -apple-system, BlinkMacSystemFont, 'Segoe UI', sans-serif" font-weight="700" font-size="96" fill="#2d3a4a">git-sync</text>
  <text x="600" y="540" text-anchor="middle" font-family="Inter, -apple-system, BlinkMacSystemFont, 'Segoe UI', sans-serif" font-weight="400" font-size="36" fill="#6b7b8d">an alternative to git submodule</text>
</svg>
